<svg width="119" height="191" viewBox="0 0 119 191" fill="none" xmlns="http://www.w3.org/2000/svg">
<path d="M82 171.128L82 164.936L56.476 174.44L56.476 181.028L82 190.64L82 184.664L76.816 182.828L76.816 172.964L82 171.128ZM62.812 177.824L71.632 174.764L71.632 180.956L62.812 177.824ZM56.476 161.79L82 161.79L82 151.494C82 146.67 78.94 143.502 74.764 143.502C71.452 143.502 69.328 145.734 68.788 148.038C68.104 145.95 65.944 144.294 63.316 144.294C59.392 144.294 56.476 147.21 56.476 152.25L56.476 161.79ZM66.7 156.246L61.192 156.246L61.192 153.222C61.192 150.99 62.272 149.874 63.928 149.874C65.656 149.874 66.7 151.17 66.7 153.15L66.7 156.246ZM77.356 156.246L71.38 156.246L71.38 152.682C71.38 150.45 72.604 149.154 74.368 149.154C76.204 149.154 77.356 150.486 77.356 152.682L77.356 156.246ZM69.22 135.144C63.892 135.144 61.48 131.328 61.48 127.764C61.48 124.236 63.892 120.42 69.22 120.42C74.548 120.42 76.924 124.236 76.924 127.764C76.924 131.328 74.548 135.144 69.22 135.144ZM69.256 141.048C77.32 141.048 82.54 134.964 82.54 127.764C82.54 120.6 77.32 114.516 69.256 114.516C61.156 114.516 55.936 120.6 55.936 127.764C55.936 134.964 61.156 141.048 69.256 141.048ZM82.576 100.562C82.576 94.9464 79.192 90.4464 72.784 90.4464L56.476 90.4464L56.476 96.1344L72.316 96.1344C75.412 96.1344 76.96 97.8624 76.96 100.562C76.96 103.262 75.412 104.99 72.316 104.99L56.476 104.99L56.476 110.678L72.784 110.678C79.192 110.678 82.576 106.178 82.576 100.562ZM61.912 65.6069L56.476 65.6069L56.476 87.0269L61.912 87.0269L61.912 79.1789L82 79.1789L82 73.4909L61.912 73.4909L61.912 65.6069ZM82 24.3903L56.476 24.3903L56.476 32.2023L73.72 38.8623L56.476 45.8823L56.476 53.2983L82 53.2983L82 47.8983L65.296 47.8983L82 41.2383L82 36.6303L65.08 29.9703L82 29.9703L82 24.3903ZM82 2.64518L76.6 2.64518L76.6 13.1572L71.704 13.1572L71.704 3.65318L66.7 3.65318L66.7 13.1572L61.84 13.1572L61.84 2.68118L56.476 2.68118L56.476 18.8452L82 18.8452L82 2.64518Z" fill="#E8AC13"/>
<path d="M117 62L117 130" stroke="#E8AC13" stroke-width="4" stroke-linecap="round"/>
</svg>
