<svg width="115" height="191" viewBox="0 0 115 191" fill="none" xmlns="http://www.w3.org/2000/svg">
<path d="M71 171.128L71 164.936L45.476 174.44L45.476 181.028L71 190.64L71 184.664L65.816 182.828L65.816 172.964L71 171.128ZM51.812 177.824L60.632 174.764L60.632 180.956L51.812 177.824ZM45.476 161.79L71 161.79L71 151.494C71 146.67 67.94 143.502 63.764 143.502C60.452 143.502 58.328 145.734 57.788 148.038C57.104 145.95 54.944 144.294 52.316 144.294C48.392 144.294 45.476 147.21 45.476 152.25L45.476 161.79ZM55.7 156.246L50.192 156.246L50.192 153.222C50.192 150.99 51.272 149.874 52.928 149.874C54.656 149.874 55.7 151.17 55.7 153.15L55.7 156.246ZM66.356 156.246L60.38 156.246L60.38 152.682C60.38 150.45 61.604 149.154 63.368 149.154C65.204 149.154 66.356 150.486 66.356 152.682L66.356 156.246ZM58.22 135.144C52.892 135.144 50.48 131.328 50.48 127.764C50.48 124.236 52.892 120.42 58.22 120.42C63.548 120.42 65.924 124.236 65.924 127.764C65.924 131.328 63.548 135.144 58.22 135.144ZM58.256 141.048C66.32 141.048 71.54 134.964 71.54 127.764C71.54 120.6 66.32 114.516 58.256 114.516C50.156 114.516 44.936 120.6 44.936 127.764C44.936 134.964 50.156 141.048 58.256 141.048ZM71.576 100.562C71.576 94.9464 68.192 90.4464 61.784 90.4464L45.476 90.4464L45.476 96.1344L61.316 96.1344C64.412 96.1344 65.96 97.8624 65.96 100.562C65.96 103.262 64.412 104.99 61.316 104.99L45.476 104.99L45.476 110.678L61.784 110.678C68.192 110.678 71.576 106.178 71.576 100.562ZM50.912 65.6069L45.476 65.6069L45.476 87.0269L50.912 87.0269L50.912 79.1789L71 79.1789L71 73.4909L50.912 73.4909L50.912 65.6069ZM71 24.3903L45.476 24.3903L45.476 32.2023L62.72 38.8623L45.476 45.8823L45.476 53.2983L71 53.2983L71 47.8983L54.296 47.8983L71 41.2383L71 36.6303L54.08 29.9703L71 29.9703L71 24.3903ZM71 2.64518L65.6 2.64518L65.6 13.1572L60.704 13.1572L60.704 3.65318L55.7 3.65318L55.7 13.1572L50.84 13.1572L50.84 2.68118L45.476 2.68118L45.476 18.8452L71 18.8452L71 2.64518Z" fill="#E8AC13"/>
<path d="M100.455 62L100.455 130" stroke="#E8AC13" stroke-width="4" stroke-linecap="round"/>
</svg>
