<svg width="167" height="191" viewBox="0 0 167 191" fill="none" xmlns="http://www.w3.org/2000/svg">
<path d="M97 171.128L97 164.936L71.476 174.44L71.476 181.028L97 190.64L97 184.664L91.816 182.828L91.816 172.964L97 171.128ZM77.812 177.824L86.632 174.764L86.632 180.956L77.812 177.824ZM71.476 161.79L97 161.79L97 151.494C97 146.67 93.94 143.502 89.764 143.502C86.452 143.502 84.328 145.734 83.788 148.038C83.104 145.95 80.944 144.294 78.316 144.294C74.392 144.294 71.476 147.21 71.476 152.25L71.476 161.79ZM81.7 156.246L76.192 156.246L76.192 153.222C76.192 150.99 77.272 149.874 78.928 149.874C80.656 149.874 81.7 151.17 81.7 153.15L81.7 156.246ZM92.356 156.246L86.38 156.246L86.38 152.682C86.38 150.45 87.604 149.154 89.368 149.154C91.204 149.154 92.356 150.486 92.356 152.682L92.356 156.246ZM84.22 135.144C78.892 135.144 76.48 131.328 76.48 127.764C76.48 124.236 78.892 120.42 84.22 120.42C89.548 120.42 91.924 124.236 91.924 127.764C91.924 131.328 89.548 135.144 84.22 135.144ZM84.256 141.048C92.32 141.048 97.54 134.964 97.54 127.764C97.54 120.6 92.32 114.516 84.256 114.516C76.156 114.516 70.936 120.6 70.936 127.764C70.936 134.964 76.156 141.048 84.256 141.048ZM97.576 100.562C97.576 94.9464 94.192 90.4464 87.784 90.4464L71.476 90.4464L71.476 96.1344L87.316 96.1344C90.412 96.1344 91.96 97.8624 91.96 100.562C91.96 103.262 90.412 104.99 87.316 104.99L71.476 104.99L71.476 110.678L87.784 110.678C94.192 110.678 97.576 106.178 97.576 100.562ZM76.912 65.6069L71.476 65.6069L71.476 87.0269L76.912 87.0269L76.912 79.1789L97 79.1789L97 73.4909L76.912 73.4909L76.912 65.6069ZM97 24.3903L71.476 24.3903L71.476 32.2023L88.72 38.8623L71.476 45.8823L71.476 53.2983L97 53.2983L97 47.8983L80.296 47.8983L97 41.2383L97 36.6303L80.08 29.9703L97 29.9703L97 24.3903ZM97 2.64518L91.6 2.64518L91.6 13.1572L86.704 13.1572L86.704 3.65318L81.7 3.65318L81.7 13.1572L76.84 13.1572L76.84 2.68118L71.476 2.68118L71.476 18.8452L97 18.8452L97 2.64518Z" fill="#E8AC13"/>
<path d="M127 62L127 130" stroke="#E8AC13" stroke-width="4" stroke-linecap="round"/>
</svg>
